<svg xmlns="http://www.w3.org/2000/svg" enable-background="new 0 0 66 66" viewBox="0 0 66 66"><polygon fill="#273240" points="14.063 32.677 9.638 32.677 10.916 22.376 12.784 22.376"/><rect width="6.521" height="1.155" x="8.59" y="31.523" fill="#A5B2BF"/><rect width="20.702" height="6.468" x="12.668" y="34.392" fill="#9C673D"/><rect width="2.344" height="21.571" x="42.645" y="33.863" fill="#9C673D"/><rect width="2.344" height="21.571" x="1.839" y="33.863" fill="#9C673D"/><rect width="44.98" height="2.082" x=".924" y="32.677" fill="#A67650"/><path fill="#273240" d="M19.4764,19.2146v8.2892H4.2276v-8.2892c0-0.3003,0.2466-0.5469,0.5469-0.5469h14.1979
				C19.2512,18.6891,19.4764,18.925,19.4764,19.2146z"/><path fill="#CEDEEF" d="M19.4764,27.5038v1.5013c0,0.3002-0.2466,0.5362-0.5469,0.5362H4.7745
				c-0.3003,0-0.5469-0.236-0.5469-0.5362v-1.5013H19.4764z"/><path fill="#273240" d="M12.2702,28.5226c0,0.2359-0.1929,0.4182-0.4181,0.4182c-0.2359,0-0.4184-0.1823-0.4184-0.4182
				c0-0.236,0.1825-0.4182,0.4184-0.4182C12.0773,28.1043,12.2702,28.2866,12.2702,28.5226z"/><g opacity=".05"><polygon fill="#FFF" points="8.249 18.668 4.228 22.678 4.228 21.627 7.187 18.668"/><polygon fill="#FFF" points="13.654 18.668 4.807 27.504 4.228 27.504 4.228 27.032 12.603 18.668"/><path fill="#FFF" d="M19.4764,19.2146v0.8364l-7.4635,7.4528h-1.8873l8.8469-8.8362
					C19.2512,18.6891,19.4764,18.925,19.4764,19.2146z"/><polygon fill="#FFF" points="11.444 18.668 4.228 25.895 4.228 24.029 9.579 18.668"/><polygon fill="#FFF" points="17.128 18.668 8.281 27.504 5.836 27.504 14.683 18.668"/><polygon fill="#FFF" points="19.476 21.895 19.476 24.34 16.313 27.504 13.857 27.504"/></g><circle cx="22.791" cy="36.519" r=".771" fill="#CEDEEF"/><g><path fill="#4ED3A6" d="M29.6558,29.4284c-0.0394,0.3876,0.1269,0.9364-0.2126,0.9364H22.206
						c-0.1174,0-0.2126-0.0952-0.2126-0.2126v-0.7238c0-0.1174,0.0952-0.2126,0.2126-0.2126h7.2371
						C29.5606,29.2158,29.6558,29.311,29.6558,29.4284z"/><rect width="1.208" height=".749" x="22.739" y="29.416" fill="#E2EBF5"/><rect width=".288" height=".749" x="24.192" y="29.416" fill="#E2EBF5"/><g><path fill="#3D6ED4" d="M29.6558,30.5774c-0.0394,0.3876,0.1269,0.9364-0.2126,0.9364H22.206
						c-0.1174,0-0.2126-0.0952-0.2126-0.2126v-0.7238c0-0.1174,0.0952-0.2126,0.2126-0.2126h7.2371
						C29.5606,30.3648,29.6558,30.46,29.6558,30.5774z"/><rect width="1.208" height=".749" x="22.739" y="30.565" fill="#E2EBF5"/><rect width=".288" height=".749" x="24.192" y="30.565" fill="#E2EBF5"/></g><g><path fill="#F15956" d="M29.6558,31.7265c-0.0394,0.3876,0.1269,0.9364-0.2126,0.9364H22.206
						c-0.1174,0-0.2126-0.0952-0.2126-0.2126v-0.7238c0-0.1174,0.0952-0.2126,0.2126-0.2126h7.2371
						C29.5606,31.5139,29.6558,31.6091,29.6558,31.7265z"/><rect width="1.208" height=".749" x="22.739" y="31.714" fill="#E2EBF5"/><rect width=".288" height=".749" x="24.192" y="31.714" fill="#E2EBF5"/></g></g><g><path fill="#F8B299" d="M56.2143,9.8305c-0.0119-0.1018-0.586-5.1453-0.6521-5.5416c-0.0129-0.0775-1.2014-1.3306-1.2401-1.3306
			s-2.1315,0.1163-2.1315,0.1163L50.537,3.63c-0.6732,2.0365-1.1654,2.4413-0.7312,2.7778v0
			c0.4819,0.3734-0.3149,1.0699,0.0078,1.4464c0.2325,0.2713,0.9689,1.2014,0.9689,1.8085c0,0.6072-0.2325,1.6664,1.4727,1.1885
			l0.121,0.8015c0,0-0.1598,0.8778-0.121,1.007c0.0388,0.1292,0.0904,0.4392,0.1679,0.5555
			c0.0775,0.1163,1.0464,0.6481,1.1756,0.6212c0.1292-0.0269,1.3306-0.3241,1.3952-0.4403S56.2143,9.8305,56.2143,9.8305z"/><path fill="#004861" d="M56.4731,62.6076l-0.7432-0.0724L53.238,38.5792L52.29,44.4244l-0.8097,17.0747l-0.8142-0.0613
			c0,0-2.6171-12.7866-2.8332-16.2093c-0.4879-7.7404,2.2699-16.9422,2.2699-16.9422l5.6628-1.243l3.774,1.5896
			C60.5629,37.2911,57.963,52.6306,56.4731,62.6076z"/><path fill="#3ACE9C" d="M50.9278,15.0897l-0.8999,9.9486c-0.9711,0.5544-2.9971-0.2482-4.0739-0.2542
			c0.2042-0.7859,0.1556-1.2003-0.0522-1.4698l2.1826-1.5674c0,0,0.1568-7.4075,1.623-7.9002
			C50.1205,13.7078,50.9278,15.0897,50.9278,15.0897z"/><path fill="#F8B299" d="M34.3175,10.6313c0,0,0.465-0.832,1.2921-0.6867c2.5328,0.445,0.5422-2.1162,2.0789-2.5595
			c0.7601-0.2193-0.0335-0.9395-0.0335-2.3136c0-0.3241-1.1959-2.3024-1.1959-2.3024l-2.1416-0.1006l-1.4909,1.2071l-0.4471,1.6542
			l-2.183,2.9071l2.8089,2.0778L34.3175,10.6313z"/><path fill="#E2EBF5" d="M34.5468,11.5761l-0.0809-0.7255c0,0-1.6743-2.7486-4.2694-2.4138l-0.1422,0.3224l0.3515,1.5751
			l1.5627,1.1162L34.5468,11.5761z"/><path fill="#CEDEEF" d="M33.589,34.2305l-3.393,11.2058L28.4276,61.573h-1.0002c-1.3167-7.3709-3.3454-21.5406-2.573-29.4356
			l2.4307-2.2507L33.589,34.2305z"/><path fill="#E2EBF5" d="M37.0093,35.3999L34.394,62.5056c-0.0344,0.0083-0.0677,0.0154-0.0997,0.0226
			c-0.4535,0.0985-0.6161,0.1021-1.0578-0.0107c-0.0143-0.0036-0.0297-0.0083-0.0451-0.0119c0,0-6.9786-29.3996-5.0388-29.963
			c1.6676-0.4844,5.9755-1.4628,5.9755-1.35C34.128,31.3065,37.0093,35.3999,37.0093,35.3999z"/><path fill="#EF233C" d="M34.2925,11.4593c-0.8102-1.6435-2.2277-2.5377-4.2383-2.7001l-0.6873,1.1291
			c-2.402,1.9096-4.952,2.665-5.1219,5.9565c-0.2246,4.3514-0.1964,17.4277-0.1964,17.4277
			c3.3616,1.7619,7.7752,2.3683,12.9603,2.1273c0,0,1.4245-14.8815,0.4091-19.7023C36.7104,12.3381,34.2925,11.4593,34.2925,11.4593
			z"/><path fill="#273240" d="M36.0584 64.906l-1.4424-.1733v.108c0 0-1.4768.3478-1.7677.0154-.3906-.4476.3431-2.3506.3431-2.3506.0154.0036.0309.0083.0451.0119.4416.1128.6043.1092 1.0578.0107.0321-.0071.0653-.0142.0997-.0226 0 0 1.3047 1.0044 1.7226 1.1326.4867.1496 1.8935-.2042 2.0146.2897C38.1989 64.2032 37.7109 65.2539 36.0584 64.906zM30.5188 62.9751v.0042c0 .1134-.073.2131-.1805.2493-.4315.1454-1.0857.1769-1.4964.1769-.2968.2968-.7717.2968-1.1872.2968-.1781 0-.3562-.0594-.4155-.2374-.1781-.6529.0594-1.3059.1882-1.8918h1.0002c0 0 .412.4648.5924.6452.3027.2523.8405.4315 1.2762.5028C30.4221 62.7418 30.5164 62.8475 30.5188 62.9751z"/><path fill="#EF233C" d="M31.672,17.5747c0.7215,2.3516,3.4016,7.0007,5.6107,8.0824c1.5611,0.7644,7.6054-1.1173,7.6054-1.1173
			l-0.0389-0.9425c0,0-4.8843-0.8299-5.8426-1.7143c-1.2681-1.1703-1.6411-4.9186-1.9973-6.607
			C35.7024,9.0813,30.3163,13.1559,31.672,17.5747z"/><path fill="#273240" d="M32.8936,7.8433c-0.4226,0.4055-2.3397,0.1174-2.3397,0.1174s-1.7287-5.3482,1.2778-6.4882
			s6.2367,0,6.3485,1.1289s-2.0789,1.0171-2.0789,1.0171s0.3018,0.7041-0.2682,0.9277s-0.4694,1.3412-0.4694,1.3412l-0.3688,0.1453
			c-0.2964-0.1884-0.8907-1.0959-1.6275-0.6246C32.5339,5.9413,33.4214,7.3369,32.8936,7.8433z"/><path fill="#4ED3A6" d="M60.6096,21.8455l-0.9502,8.0411c-3.5099,0.67-7.2906,1.03-9.9906,0c0,0,0.3508-7.1912,0.1408-9.0712
			c-0.19-1.79-1.02-5.42-0.1-6.97c0.24-0.4,1.64-1.12,1.64-1.12l0.04-0.04l0.99-1.03l0.7,1.82c0.46-1.21,1.72-2.42,3.13-3.65
			l0.95,0.81c0,0,3.55,0.88,4.13,1.86C62.4896,14.5055,60.6096,21.8455,60.6096,21.8455z"/><path fill="#3ACE9C" d="M65.0053,24.9599c-0.2398,1.979-3.9304,8.5793-3.9304,8.5793l-0.9538-0.4145
			c0,0,1.8772-7.2792,1.5649-9.1846c-0.2885-1.7665-2.7364-4.7594-2.9122-6.5414c-0.1353-1.3712,0.6696-5.4824,2.042-5.3565
			C64.0556,12.339,65.4149,21.5895,65.0053,24.9599z"/><path fill="#9C673D" d="M56.6573 63.3843c-.0551.2749-.033.4397-.033.4397h-.1172l-.0344-.0951c0 .0042-.0014.2052-.2622.249-.2641.0438-1.4616.3074-1.5529-.0805-.0918-.3884 1.0178-.7612 1.0724-1.3618l.7428.072C56.4727 62.6076 56.7123 63.1099 56.6573 63.3843zM51.5051 62.6152h-.8386L50.64 62.4459c0 0-.7409.3125-1.1397.2708-.3989-.0413-1.3769-.1276-1.3015-.3947.075-.2675 1.0146-.4031 1.3579-.5231.2354-.0821 1.1093-.3611 1.1093-.3611l.8142.0613C51.4802 61.4991 51.6445 62.2993 51.5051 62.6152z"/><path fill="#F8B299" d="M61.0749,33.5391c0,0-0.0694,1.1384-0.4333,1.3755c-0.3634,0.2371-1.1095,0.5779-1.1437,0.3176
			c-0.0337-0.2564,0.3292-1.2623,0.3398-1.2926c-0.0169,0.0212-0.4068,0.5051-0.6728,0.3514
			c-0.2713-0.1566,0.3788-0.3711,0.4174-0.6237c0.0381-0.2525,0.5388-0.5427,0.5388-0.5427L61.0749,33.5391z"/><path fill="#3ACE9C" d="M57.1557,10.6342l-2.7032,3.0309l-1.37-0.19c0.4559-1.205,1.7155-2.423,3.1318-3.6446L57.1557,10.6342z"/><path fill="#631010" d="M56.0741,8.5724c0,0-0.5507-1.1057-0.4861-2.0746s-0.633-1.3306-0.9172-0.7105l-0.2584,0.5684
			l-0.3488,0.0258c0,0,0.0904-0.8914-0.5813-1.1756c-0.6717-0.2842-0.2454-1.2918-0.2454-1.2918s-5.1414,1.4598-4.4051-0.3617
			c0.7363-1.8215,7.4279-2.7257,7.9059,0S56.0741,8.5724,56.0741,8.5724z"/><path fill="#F8B299" d="M44.8492,23.5973c0,0,0.0177-0.2484,0.3309-0.2484s0.9042,0.3368,0.9514,0.7505
			c0.0473,0.4137-0.1891,0.8923-0.4669,0.786c-0.2777-0.1064-0.7766-0.3456-0.7766-0.3456L44.8492,23.5973z"/><path fill="#F7AA8E" d="M46.0842,23.9827c-0.3354,0.0186-0.5839-0.5592-0.6154-0.5592c-0.0308,0-0.0977,0.2795-0.1998,0.2795
			s-0.2262-0.2172-0.1285-0.6039c0.0977-0.3861,0.7614,0.2152,0.7614,0.2152C46.106,23.454,46.1267,23.8039,46.0842,23.9827z"/><path fill="#3ACE9C" d="M53.0796,13.4755c0,0-0.69,0.12-0.77,0.36c0,0-0.08-0.62-0.92-1.15l0.99-1.03L53.0796,13.4755z"/></g></svg>