<?xml version="1.0" encoding="utf-8"?>
<!-- Svg Vector Icons : http://www.onlinewebfonts.com/icon -->
<!DOCTYPE svg PUBLIC "-//W3C//DTD SVG 1.1//EN" "http://www.w3.org/Graphics/SVG/1.1/DTD/svg11.dtd">
<svg version="1.1" xmlns="http://www.w3.org/2000/svg" xmlns:xlink="http://www.w3.org/1999/xlink" x="0px" y="0px" viewBox="0 0 1000 1000" enable-background="new 0 0 1000 1000" xml:space="preserve">
<metadata> Svg Vector Icons : http://www.onlinewebfonts.com/icon </metadata>
<g><g transform="translate(0.000000,512.000000) scale(0.100000,-0.100000)">
<path fill="#fff" d="M5893.9,4993.8c-312-59.3-668-246.9-880.5-465.1l-93.8-93.8l-97.6,36.4c-145.5,55.5-361.8,67-526.4,24.9c-248.8-59.3-495.8-250.8-604.8-467c-44-86.1-47.9-88-174.2-112.9c-70.8-13.4-191.4-53.6-266.1-88c-453.6-210.5-719.7-625.9-719.7-1121.6c0-382.8,160.8-725.4,447.9-959c172.3-139.7,356-220.1,624-273.7c34.4-7.7,63.2-40.2,101.4-114.8c105.3-201,325.4-369.4,578.1-442.1c137.8-40.2,409.6-30.6,551.2,19.1l91.9,32.5L5044,855.6c323.5-308.2,717.8-465.1,1175.2-465.1c434.5,0,838.4,162.7,1167.6,467l118.7,109.1l91.9-32.5c149.3-53.6,419.2-57.4,574.2-11.5c235.4,72.7,432.6,229.7,557,444.1c26.8,47.9,51.7,88,53.6,91.9c1.9,3.8,63.2,19.1,135.9,32.5c455.5,95.7,857.5,497.7,953.2,957c15.3,74.6,28.7,189.5,28.7,258.4c0,558.9-407.7,1075.7-947.5,1198.2c-72.7,17.2-143.6,32.5-155,36.4c-11.5,3.8-49.8,55.5-84.2,116.8c-206.7,367.5-648.9,543.6-1070,428.8l-141.6-40.2l-78.5,74.6C7205,4729.7,6960,4871.3,6671,4957.5C6456.6,5020.6,6117.8,5035.9,5893.9,4993.8z M6376.2,4716.3c371.3-47.9,750.3-269.9,949.4-555.1l51.7-74.6l68.9,45.9c112.9,74.6,231.6,107.2,386.6,109.1c315.8,1.9,587.6-195.2,681.4-491.9l32.5-99.5l155-11.5c664.2-42.1,1066.1-742.7,771.4-1339.8c-157-315.8-497.7-528.3-847.9-530.2c-74.7,0-78.5-3.8-103.4-80.4c-55.5-193.3-206.7-361.8-398.1-451.7c-93.8-44-134-51.7-292.8-51.7c-174.2,0-191.4,3.8-319.7,68.9l-135.9,70.8l-78.5-103.4C7067.2,915,6686.3,721.6,6280.5,700.6c-258.4-11.5-442.2,26.8-683.3,141.6c-145.5,70.8-206.7,114.8-336.9,243.1c-88,86.1-172.3,176.1-187.6,199.1l-26.8,40.2l-135.9-67c-245-122.5-507.2-105.3-729.2,45.9c-124.4,84.2-241.2,243.1-273.7,371.3l-24.9,93.8h-86.1c-208.6,1.9-461.3,95.7-624,235.4c-336.9,289-419.2,828.8-179.9,1202c160.8,252.6,424.9,409.6,733.1,436.4l151.2,11.5l23,80.4c126.3,424.9,633.6,637.4,1022.1,424.9c57.4-30.6,111-55.5,118.7-55.5c7.7,0,45.9,44,86.1,97.6c195.2,266.1,581.9,478.5,945.6,520.6C6196.3,4735.4,6215.4,4735.4,6376.2,4716.3z"/>
<path fill="#FCD837" d="M5968.5,4264.6c-497.7-107.2-857.5-499.6-928.3-1010.6c-34.4-239.3-1.9-352.2,237.4-825c195.2-382.8,204.8-411.5,229.7-587.6c13.4-101.4,42.1-223.9,63.2-269.9c47.9-109.1,176.1-250.7,287.1-313.9c45.9-28.7,105.3-70.8,130.1-95.7c40.2-40.2,61.3-44,218.2-44c158.9,0,178,3.8,216.3,44c23,24.9,76.6,61.3,118.7,82.3c42.1,19.1,116.7,74.6,164.6,122.5c122.5,122.5,187.6,266,208.6,461.3c21,199.1,49.8,283.3,179.9,514.9c241.2,426.8,298.6,580,298.6,782.8c-1.9,426.8-264.1,844.1-650.8,1033.6C6475.7,4289.5,6238.4,4322,5968.5,4264.6z M6558.1,4078.9c252.6-93.8,453.6-271.8,574.2-513c135.9-271.8,141.6-513,19.1-792.4c-42.1-95.7-126.3-256.5-185.7-357.9l-109.1-183.7l-147.4-49.8c-122.5-40.2-344.5-88-411.5-88c-9.6,0-15.3,105.3-15.3,235.4l1.9,233.5l268,285.2l269.9,283.3l-49.8,49.8c-40.2,42.1-55.5,47.9-84.2,28.7c-30.6-17.2-42.1-9.6-88.1,63.2c-28.7,45.9-59.3,84.2-67,84.2c-7.6,0-47.9-47.9-88-107.2l-74.7-109.1l-49.8,65.1c-26.8,34.4-65.1,82.3-86.1,107.2l-38.3,44l-112.9-90l-111-88l-65.1,74.6c-34.5,40.2-63.2,80.4-65.1,90c-1.9,38.3-42.1,5.8-76.6-63.2c-32.5-63.2-45.9-74.6-82.3-67c-30.6,7.6-55.5-1.9-86.1-34.5l-44-47.9l289-296.7l289-296.7l-5.7-218.2l-5.7-216.3l-86.1,5.7c-99.5,7.7-281.4,49.8-398.1,93.8c-74.6,26.8-91.9,47.9-189.5,223.9c-202.9,359.9-287.1,604.9-264.1,771.4c36.4,262.2,114.8,432.6,287.1,616.3c141.7,149.3,323.5,256.5,513,300.5C6152.3,4153.6,6393.4,4138.2,6558.1,4078.9z M6288.2,3160.2l84.2-109.1l72.7,105.3c40.2,57.4,80.4,105.3,88,105.3c7.7,0,30.6-26.8,51.7-61.3l38.3-59.3l-212.5-227.8l-214.4-225.8l-101.4,101.4c-57.4,53.6-155,157-218.2,229.7c-111,124.4-114.8,130.2-91.9,185.7c13.4,32.5,28.7,57.4,34.5,57.4c7.7,0,42.1-34.5,80.4-76.6l67-78.5l105.3,86.1c57.4,45.9,111,84.2,118.7,82.3C6196.3,3273.1,6240.3,3221.4,6288.2,3160.2z M5752.2,2006c28.7-5.7,51.7-17.2,51.7-24.9c0-13.4-137.8-63.2-145.5-53.6c0,1.9-7.7,28.7-15.3,57.4c-11.5,45.9-7.6,53.6,21.1,44C5683.3,2023.2,5721.6,2013.6,5752.2,2006z M6780.1,2023.2c0-15.3-1047-317.7-1081.4-313.9c-9.6,0-19.1,15.3-19.1,32.5c0,42.1,430.7,174.2,689.1,208.6c105.3,15.3,229.7,40.2,277.5,55.5C6747.5,2038.5,6780.1,2042.3,6780.1,2023.2z M6757.1,1803.1c-5.7-40.2-51.7-57.4-474.7-181.8c-403.9-116.7-472.8-132.1-497.7-109.1c-17.2,17.2-21,32.5-9.6,44c15.3,13.4,924.5,283.3,972.3,287.1C6757.1,1845.2,6760.9,1826.1,6757.1,1803.1z M6648,1521.7c-95.7-134-323.5-227.8-501.5-206.7c-93.8,11.5-197.2,51.7-158.9,65.1c55.5,19.1,669.9,195.2,683.3,195.2C6680.5,1577.2,6669.1,1552.3,6648,1521.7z"/>
<path d="M1899.2,888.2c-365.6-63.2-681.4-298.6-853.7-635.5c-225.9-446-141.6-991.5,210.5-1345.6c233.5-235.4,513-354.1,834.5-354.1c338.8,0,583.8,105.3,834.5,354.1c166.5,164.6,264.1,333,315.8,545.5c36.4,151.2,32.5,444.1-9.6,583.8C3059.1,618.3,2481.1,987.7,1899.2,888.2z"/>
<path d="M4655.5,449.8c-342.6-105.3-449.8-509.2-201-758c269.9-269.9,715.9-114.8,769.5,268c17.2,137.8-24.9,252.7-135.9,363.7C4959.8,451.8,4808.6,495.8,4655.5,449.8z"/>
<path d="M3830.5-495.7c-42.1-28.7-74.6-72.7-93.8-124.4c-24.9-70.8-24.9-90,0-160.8c74.6-210.5,386.6-227.8,470.9-24.9c34.5,86.1,34.5,132.1-5.7,214.4C4138.7-455.5,3958.7-409.6,3830.5-495.7z"/>
<path d="M1367.1-1640.3c-484.3-80.4-945.6-424.9-1146.5-855.6C105.7-2744.7,100-2790.7,100-3833.8v-943.6h392.4h390.5l5.7,846c5.7,796.2,7.7,851.8,42.1,901.5c38.3,55.5,122.5,109.1,174.2,109.1c24.9,0,28.7-103.4,28.7-928.3v-928.3h966.6h966.6v928.3c0,729.3,5.7,928.3,24.9,928.3c11.5,0,49.8-17.2,84.2-38.3c122.5-72.7,120.6-65.1,120.6-985.7v-832.6h392.4h394.3l-5.7,1020.2l-5.7,1018.3l-49.8,128.3c-72.7,187.6-162.7,325.4-310.1,486.2c-262.2,281.3-622.1,459.4-1004.9,495.7l-130.2,13.4l-199.1-245c-111-134-206.7-254.6-216.3-268c-7.7-13.4,82.3-468.9,199.1-1012.5l212.5-985.7l-191.4-206.7c-105.3-112.9-212.5-224-237.4-246.9l-45.9-44l-241.2,245L1614-4136.3l208.6,966.6c116.8,532.1,210.5,983.8,210.5,1004.9c0,21.1-95.7,153.1-210.5,292.8C1587.2-1590.6,1608.3-1600.1,1367.1-1640.3z"/></g></g>
</svg>